<svg width="172" height="172" viewBox="0 0 172 172" fill="none" xmlns="http://www.w3.org/2000/svg">
<circle cx="86" cy="86" r="86" fill="white"/>
<path d="M58.4 116V46H91.2C99.6 46 106 47.6667 110.4 51C114.8 54.2667 117 58.6667 117 64.2C117 67.9333 116.133 71.1333 114.4 73.8C112.667 76.4 110.333 78.4333 107.4 79.9C104.533 81.3 101.4 82 98 82L99.8 78.4C103.733 78.4 107.267 79.1333 110.4 80.6C113.533 82 116 84.0667 117.8 86.8C119.667 89.5333 120.6 92.9333 120.6 97C120.6 103 118.3 107.667 113.7 111C109.1 114.333 102.267 116 93.2 116H58.4ZM71.4 105.8H92.4C97.2667 105.8 101 105 103.6 103.4C106.2 101.8 107.5 99.2333 107.5 95.7C107.5 92.2333 106.2 89.7 103.6 88.1C101 86.4333 97.2667 85.6 92.4 85.6H70.4V75.5H89.8C94.3333 75.5 97.8 74.7 100.2 73.1C102.667 71.5 103.9 69.1 103.9 65.9C103.9 62.6333 102.667 60.2 100.2 58.6C97.8 57 94.3333 56.2 89.8 56.2H71.4V105.8Z" fill="black"/>
</svg>
